<svg xmlns="http://www.w3.org/2000/svg"><symbol id="super-domes" viewBox="0 0 196 226"><path d="M47.8 129.9h48.4v19.98H47.8zm48.4-17.1V76.5l-25.9 36.3h25.9zm3.6-40.1v40.1h49.7a53.6 53.6 0 0 0-49.7-40.1zm0 57.2h8.1v19.98h-8.1zm-5.4-57c-23 1.4-42.3 18.1-47.9 39.9h19.3z"/><path d="M98 3.4L3.1 58.2v109.6L98 222.6l94.9-54.8V58.2zm77.6 126.5h-23.8v21.8a1.7 1.7 0 0 1-1.8 1.8H46a1.7 1.7 0 0 1-1.8-1.8v-21.8H20.4a1.8 1.8 0 1 1 0-3.6h13.5v-11.7a1.7 1.7 0 0 1 1.8-1.8h7a57.2 57.2 0 0 1 55.1-43.7c.2-.2.4-.2.7 0a57 57 0 0 1 54.8 43.7h7a1.7 1.7 0 0 1 1.8 1.8v11.7h13.5a1.8 1.8 0 1 1 0 3.6z"/><path d="M37.5 116.4h121v9.9h-121zm74 13.5h36.7v19.98h-36.7z"/></symbol><symbol id="mecha-stilts" viewBox="0 0 196 226"><path d="M70.6 138.6h18v11.34h-18zm21.6 0h11.5v11.34H92.2zm15.2 0h18v11.34h-18zM98 63.5c-21.1 0-38.7 12.8-39.6 36h79.2c-.9-23.2-18.5-36-39.6-36zm-42.5 75.1H67v11.34H55.5zM44.7 135h106.6v-31.9H44.7zm52.4-12.3H141a1.8 1.8 0 1 1 0 3.6H97.1a1.8 1.8 0 0 1 0-3.6z"/><path d="M98 3.4L3.1 58.2v109.6L98 222.6l94.9-54.8V58.2zm56.9 133.4a1.7 1.7 0 0 1-1.8 1.8h-9v11.3h9a1.8 1.8 0 1 1 0 3.6H42.9a1.8 1.8 0 1 1 0-3.6h9v-11.3h-9a1.7 1.7 0 0 1-1.8-1.8v-35.5a1.7 1.7 0 0 1 1.8-1.8h11.9c.9-25.6 20-39.6 43.2-39.6s42.3 14 43.2 39.6h11.9a1.7 1.7 0 0 1 1.8 1.8z"/><path d="M129 138.6h11.5v11.34H129z"/><path fill="#fff" d="M97.1 126.3H141a1.8 1.8 0 1 0 0-3.6H97.1a1.8 1.8 0 0 0 0 3.6z"/></symbol><symbol id="space-bubbles" viewBox="0 0 196 226"><path d="M71.7 131.7H59.8L44 150.4l2.5 3.6 30.4-16-5.2-6.3zm-21.9-12.9h98.5v9.36H49.8zm86-3.6a45.2 45.2 0 0 0 2.2-13.7 39 39 0 0 0-78 0c0 4.7.4 9.5 2.2 13.7zm-73.4 34.7h24.4l-7.3-9-17.1 9zm61.9-18.2l-5.4 6.3 30.6 16 2.5-3.4-15.8-18.9h-11.9z"/><path d="M98 3.4L3.1 58.2v109.6L98 222.6l94.9-54.8V58.2zm57.6 148.1l-4.1 6a2 2 0 0 1-2.4.5l-8.6-4.5H55.3l-8.6 4.5a1.9 1.9 0 0 1-2.3-.5l-4.2-6a2 2 0 0 1 .2-2.1l14.9-17.7H48a1.7 1.7 0 0 1-1.8-1.8V117a1.7 1.7 0 0 1 1.8-1.8h10.4a49.4 49.4 0 0 1-2-13.7 42.6 42.6 0 0 1 85.2 0 45.9 45.9 0 0 1-2 13.7H150a1.7 1.7 0 0 1 1.8 1.8v12.9a1.7 1.7 0 0 1-1.8 1.8h-9.2l14.8 17.7a1.8 1.8 0 0 1 0 2.1z"/><path d="M109.2 149.9h24.4l-17.1-9-7.3 9zm-32.8-18.2l15.1 18.2h13l15.1-18.2H76.4z"/></symbol></svg>